<svg width="210" height="210" viewBox="0 0 210 210" fill="none" xmlns="http://www.w3.org/2000/svg">
<circle cx="105" cy="105" r="105" fill="#0D090A"/>
<path d="M28.529 135.137H89.4177C88.9026 136.334 88.3135 137.633 87.6927 138.996C84.0823 146.932 79.5864 156.81 81.8106 162.717C82.3573 164.163 83.278 165.283 84.5461 166.081H80.1597C79.7275 164.079 79.1596 159.992 80.2214 157.847L80.9375 156.402H78.4894H77.768V154.538L78.1296 154.552L78.1878 152.6L70.8047 152.325C72.3533 151.589 72.8983 150.188 72.8877 147.098C72.8789 144.885 71.7465 143.565 69.8558 143.565C69.369 143.565 68.8839 143.653 68.4571 143.768C68.4606 142.884 68.3442 141.869 67.8521 141.227C67.5329 140.809 67.0831 140.579 66.5875 140.579L66.5046 142.488C66.6298 142.64 66.688 143.192 66.6828 143.829C66.2101 143.69 65.6545 143.567 65.0848 143.567C63.1976 143.567 62.0635 144.886 62.0546 147.1C62.0423 149.858 62.4762 151.265 63.6685 152.061L54.1353 151.708H38.4872L37.9916 151.847C36.9492 152.237 36.8363 153.072 36.8363 154.755C36.8363 155.996 37.0974 156.906 37.6159 157.46C37.9034 157.769 38.1962 157.894 38.4096 157.946C37.8258 158.998 37.2032 160.448 37.2032 161.914C37.2032 163.544 37.877 165.092 38.4202 166.081H34.0531V178.889H174.641V166.081H167.79C169.034 165.574 170.189 164.803 171.189 163.632C173.937 160.417 167.887 151.903 158.347 139.281C157.259 137.844 156.211 136.458 155.231 135.137H158.153H180.163V123.695V32H28.529V135.137ZM65.0866 145.517C66.046 145.517 67.099 146.036 67.1078 146.04L67.4729 146.223L67.8363 146.04C67.8468 146.034 68.9016 145.517 69.8575 145.517C70.6353 145.517 71.1204 145.782 71.1257 147.104C71.138 150.449 70.8964 150.736 67.4729 151.121C64.0477 150.738 63.8078 150.449 63.8219 147.104C63.8255 145.782 64.3105 145.517 65.0866 145.517ZM118.938 163.011C119.844 163.06 120.548 163.103 120.767 163.119C120.807 163.121 120.85 163.122 120.89 163.122C121.351 163.122 121.781 162.929 122.139 162.558C122.633 162.045 122.903 161.272 122.913 160.774C124.508 160.491 125.95 159.697 125.95 158.1C125.95 157.546 125.751 157.041 125.374 156.64C124.785 156.014 123.795 155.725 122.915 155.596C122.971 155.202 122.977 154.759 122.91 154.259C122.717 152.797 119.696 151.244 113.929 149.641L114.825 142.554C119.051 144.808 134.154 151.726 147.735 143.952L147.481 148.056L147.467 148.048L147.398 149.423L147.391 149.522H147.393L147.322 150.902C146.273 151.755 141.5 153.03 139.397 153.59C138.034 153.955 137.046 154.216 136.589 154.408C135.632 154.798 135.371 155.434 135.32 155.901C135.291 156.16 135.328 156.4 135.399 156.621C135.013 156.707 134.655 156.84 134.383 157.117C134.057 157.448 133.886 157.894 133.886 158.409C133.886 159.254 134.254 159.9 134.734 160.372C134.51 161.446 135.715 162.145 136.528 162.609C137.131 162.955 137.854 163.21 138.625 163.407C138.844 164.528 140.136 165.135 141.401 165.718C141.664 165.841 141.898 165.96 142.142 166.083H112.756C113.34 165.999 113.946 165.873 114.599 165.636C116.941 164.789 118.338 163.944 118.938 163.011ZM142.837 144.065C144.299 143.06 145.528 142.068 146.281 141.422L146.754 142.31C145.463 143.032 144.153 143.606 142.837 144.065ZM78.1631 158.352C77.537 160.952 77.9991 164.249 78.3359 166.001L75.2476 166.08H58.0703V158.352H77.6851H78.1631ZM76.006 154.472V156.4H55.6786V153.717L76.006 154.472ZM38.6425 153.662C38.646 153.66 38.6495 153.66 38.653 153.658H53.9149V156.394L38.8488 156.063C38.7836 156.012 38.5984 155.659 38.5984 154.753C38.6001 154.146 38.6213 153.828 38.6425 153.662ZM40.2334 165.594C39.7448 164.826 38.967 163.31 38.967 161.912C38.967 160.513 39.9071 158.862 40.4838 158.028L54.1353 158.352H56.303V166.08H48.6765L40.2334 165.594ZM172.875 168.031V176.936H35.8169V168.031H48.6553L56.7686 168.496L75.2335 168.031H92.8746C92.954 168.031 93.0369 168.041 93.118 168.041C93.1798 168.041 93.238 168.031 93.3015 168.031H110.893H146.761H172.875ZM102.701 166.08C104.461 165.371 105.808 164.645 106.521 164.217C107.196 164.834 108.505 165.773 110.364 166.08H102.701ZM148.841 166.08C149.386 165.97 149.946 165.857 150.543 165.732L151.462 165.541C152.576 165.312 154.486 165.672 156.508 166.052C156.554 166.062 156.606 166.07 156.652 166.08H148.841ZM156.993 140.534C162.524 147.851 171.782 160.095 169.907 162.289C166.739 165.999 161.231 164.961 156.802 164.128C154.527 163.7 152.564 163.325 151.141 163.624L150.218 163.815C147.142 164.45 144.242 165.047 143.329 164.528C142.969 164.325 142.544 164.126 142.112 163.925C142.846 163.972 143.553 163.993 144.19 163.993C145.682 163.993 146.779 163.899 146.89 163.888L146.745 161.944C145.331 162.067 141.819 162.174 139.226 161.563C142.198 161.78 146.613 161.959 147.892 161.208L147.064 159.484C146.234 159.972 141.279 159.834 137.193 159.43C137.022 159.406 136.893 159.41 136.741 159.4C136.484 159.316 135.651 158.946 135.565 158.561C135.824 158.38 136.928 158.485 137.461 158.536C137.9 158.577 138.348 158.606 138.84 158.608C144.622 158.608 148.059 157.931 149.343 156.537L148.11 155.141C147.781 155.499 146.144 156.654 138.685 156.654C138.369 156.656 138.011 156.627 137.611 156.59C137.494 156.578 137.374 156.572 137.258 156.56L137.396 156.336C137.35 156.301 137.299 156.256 137.253 156.211C137.655 156.057 138.704 155.776 139.814 155.481C145.81 153.879 148.571 152.932 149.063 151.56C149.103 151.447 149.13 151.333 149.142 151.216C150.012 151.778 150.869 152.415 151.149 152.817C151.992 154.027 156.143 155.204 157.654 154.39C158.28 154.048 158.573 153.354 158.398 152.62C157.607 149.321 154.395 145.911 154.259 145.769L153.044 147.184C153.074 147.215 155.753 150.057 156.584 152.721C155.576 152.844 152.984 152.122 152.55 151.63C151.895 150.685 150.132 149.565 149.197 149.011L149.724 140.432L148.304 141.367L146.756 138.455L145.957 139.203C145.9 139.255 140.353 144.4 135.614 145.466C124.478 146.102 114.685 140.286 114.551 140.204L113.431 139.523L112.375 147.884C112.08 147.945 111.764 148.025 111.44 148.109C110.849 148.263 110.036 148.466 109.699 148.425C109.336 148.376 108.389 148.238 104.766 152.776C101.09 153.623 96.7373 153.877 96.1711 152.899C95.5714 151.851 97.8167 147.264 100.207 143.803L98.8044 142.618C97.4446 144.588 93.1233 151.226 94.6825 153.947C95.358 155.122 97.12 155.489 99.0584 155.489C101.505 155.489 104.233 154.905 105.422 154.618L105.706 154.55L105.896 154.308C107.242 152.608 109.013 150.672 109.604 150.379C110.225 150.443 111.05 150.219 111.84 150.014C111.93 149.991 112.024 149.967 112.114 149.944L111.966 151.115L112.742 151.322C116.431 152.309 120.716 153.898 121.165 154.538C121.269 155.305 121.148 155.508 121.218 155.489V155.499C121.202 155.499 121.171 155.501 121.158 155.501C116.687 154.866 111.429 153.734 110.749 153.022L109.415 154.302C110.609 155.823 117.869 157 121.082 157.443C122.546 157.376 124.049 157.745 124.188 158.093C124.188 158.471 122.978 158.877 121.761 158.934C120.398 158.095 117.509 157.38 111.495 157.117L111.426 159.069C120.098 159.447 121.1 160.812 121.162 160.671C121.132 160.845 120.975 161.132 120.887 161.163C120.058 161.102 112.438 160.704 112.438 160.704L112.355 162.652C112.355 162.652 114.204 162.75 116.176 162.855C115.669 163.124 114.999 163.431 114.052 163.772C109.789 165.309 107.404 162.48 107.309 162.363L106.821 161.754L106.193 162.178C106.098 162.24 96.5415 168.547 86.6309 164.969C85.0312 164.393 83.9888 163.407 83.4438 161.959C81.5301 156.881 86.0048 147.047 89.273 139.868C90.2696 137.676 91.2114 135.605 91.8711 133.907C95.1693 125.38 114.9 121.125 115.1 121.084L115.666 120.963L116.408 117.362C118.151 118.07 120.026 118.478 121.987 118.478C123.897 118.478 125.725 118.092 127.428 117.416L128.986 120.576L129.402 120.658C129.557 120.689 144.872 123.793 151.638 133.312C153.171 135.477 155.026 137.934 156.993 140.534ZM121.984 116.534C114.013 116.534 107.53 109.359 107.53 100.541C107.53 91.7223 114.015 84.5454 121.984 84.5454C129.952 84.5454 136.436 91.7223 136.436 100.541C136.436 109.359 129.954 116.534 121.984 116.534ZM178.4 133.185H159.917V125.647H178.4V133.185ZM30.2928 33.9518H178.401V123.695H158.153V133.185H153.795C153.534 132.822 153.266 132.457 153.021 132.112C146.408 122.811 132.755 119.411 130.129 118.831L129.058 116.663C134.461 113.747 138.202 107.624 138.202 100.539C138.202 90.643 130.926 82.5916 121.985 82.5916C113.043 82.5916 105.768 90.643 105.768 100.539C105.768 107.56 109.438 113.634 114.761 116.581L114.2 119.298C110.775 120.086 93.6172 124.437 90.2484 133.144C90.2431 133.158 90.2361 133.173 90.2308 133.185H30.2928V33.9518Z" fill="#CC998D"/>
</svg>
